<?xml version="1.0" standalone="no"?><!DOCTYPE svg PUBLIC "-//W3C//DTD SVG 1.1//EN" "http://www.w3.org/Graphics/SVG/1.1/DTD/svg11.dtd"><svg t="1545552019685" class="icon" style="" viewBox="0 0 1024 1024" version="1.1" xmlns="http://www.w3.org/2000/svg" p-id="1241" xmlns:xlink="http://www.w3.org/1999/xlink" width="200" height="200"><defs><style type="text/css"></style></defs><path d="M341.333333 512h213.333334v298.666667H341.333333z" fill="#00FFFF" p-id="1242"></path><path d="M882.346667 256l-341.333334-128a21.333333 21.333333 0 0 0-14.506666 0l-384 128a21.333333 21.333333 0 0 0 6.826666 42.666667 19.2 19.2 0 0 0 6.826667 0L170.666667 292.693333v411.306667A149.333333 149.333333 0 0 0 320 853.333333h384a149.333333 149.333333 0 0 0 149.333333-149.333333v-341.333333a21.333333 21.333333 0 0 0-42.666666 0v341.333333a106.666667 106.666667 0 0 1-106.666667 106.666667H640v-277.333334a21.333333 21.333333 0 0 0-21.333333-21.333333h-213.333334a21.333333 21.333333 0 0 0-21.333333 21.333333v213.333334a21.333333 21.333333 0 0 0 42.666667 0V554.666667h170.666666v256H320A106.666667 106.666667 0 0 1 213.333333 704v-426.666667L532.906667 170.666667l334.08 128a21.76 21.76 0 0 0 29.013333-13.653334 22.186667 22.186667 0 0 0-13.653333-29.013333z" fill="#0000FF" p-id="1243"></path></svg>